<svg xmlns="http://www.w3.org/2000/svg" width="5721" height="3754" viewBox="0 0 5721 3754">
  <defs>
    <style>
      .cls-1 {
        fill-rule: evenodd;
      }
    </style>
  </defs>
  <path id="Color_Fill_1" data-name="Color Fill 1" class="cls-1" d="M0,0H5721V2387l-527-3v-1c19.99-41.98,39.36-79.54,56-127q6-16.005,12-32-10.995-33.495-22-67-12.495-39-25-78l-121-100-87-3q-91.485,24-183,48-4.005-16.995-8-34,11.505-42.99,23-86l-54-72q-251.97-16.5-504-33l-419,3c-61.72,0-127.55-4.72-184,4l-68,3q-55.995,2.505-112,5-212.475,9.495-425,19v1q6,183.975,12,368,17.505,72.99,35,146c5.03,18.54,17.02,46.04,10,65q-142.98-20.505-286-41c-29.81-5.67-67.81-4.48-102-5q-12-.495-24-1l-60,30q-103.995,7.005-208,14-46.995,3.495-94,7-83.49-40.5-167-81-50.49,21-101,42l-405,12-183,6q-78.99-22.5-158-45-77.49,19.5-155,39-241.98,1.995-484,4l-326,3q-87.49,1.005-175,2-100.99,10.005-202,20V0ZM5034,2057q37.995,16.5,76,33l15,27,33,54q6,45.495,12,91-27.495,37.5-55,75l-29,23q-10.005,9-20,18l-301,18q7.5-48.99,15-98c0.33,1.67.67,3.33,1,5v-2q33.99-36,68-72l12-84q46.5-33.495,93-67Q4993.99,2067.5,5034,2057Z"/>
</svg>
